<?xml version="1.0" standalone="no"?>
<!DOCTYPE svg PUBLIC "-//W3C//DTD SVG 20010904//EN"
 "http://www.w3.org/TR/2001/REC-SVG-20010904/DTD/svg10.dtd">
<svg version="1.0" xmlns="http://www.w3.org/2000/svg"
 width="512.000000pt" height="512.000000pt" viewBox="0 0 512.000000 512.000000"
 preserveAspectRatio="xMidYMid meet">
<metadata>
Created by potrace 1.14, written by Peter Selinger 2001-2017
</metadata>
<g transform="translate(0.000000,512.000000) scale(0.100000,-0.100000)"
fill="#000000" stroke="none">
<path d="M1115 5030 c-62 -13 -148 -47 -199 -81 -53 -35 -137 -118 -156 -155
-12 -21 -11 -26 6 -39 18 -14 17 -15 -7 -6 -25 9 -28 6 -76 -87 -80 -154 -158
-384 -178 -527 -3 -22 -7 -51 -10 -65 -9 -43 -14 -175 -16 -415 -2 -318 -16
-417 -90 -675 -30 -105 -107 -403 -116 -450 -2 -14 -13 -63 -23 -110 -10 -47
-21 -98 -24 -115 -2 -16 -14 -79 -25 -140 -11 -60 -29 -173 -40 -250 -19 -132
-23 -167 -36 -297 -3 -29 -8 -64 -10 -78 -2 -14 -7 -72 -11 -130 -4 -58 -8
-123 -10 -145 -2 -22 -6 -159 -8 -305 -5 -285 -2 -319 47 -438 114 -282 373
-453 665 -438 189 10 348 85 473 224 143 160 266 410 304 622 4 19 10 49 13
65 4 17 7 170 6 341 l0 311 44 -19 c108 -48 247 -25 333 55 25 23 51 51 57 62
9 17 14 18 29 8 10 -7 43 -25 73 -40 46 -23 68 -27 135 -27 70 0 89 4 155 34
104 49 176 49 280 0 66 -30 85 -34 156 -35 75 0 87 3 154 37 41 21 74 37 75
35 41 -65 116 -124 180 -142 82 -23 152 -15 255 29 14 6 15 -2 9 -56 -12 -122
-7 -531 7 -609 31 -168 79 -309 148 -435 54 -98 150 -227 210 -282 326 -297
825 -217 1051 170 19 32 35 63 35 67 0 4 6 21 14 37 38 76 47 178 41 439 -3
137 -7 270 -10 295 -2 25 -7 81 -10 125 -13 168 -25 297 -30 325 -2 8 -6 42
-9 75 -34 306 -130 770 -245 1187 -45 162 -59 221 -66 276 -3 20 -7 48 -10 62
-5 23 -8 91 -19 550 -3 96 -7 186 -10 200 -3 14 -9 45 -12 70 -3 25 -8 48 -10
51 -2 4 -6 24 -10 45 -17 106 -124 381 -188 482 -24 38 -29 42 -43 30 -15 -12
-15 -11 -3 9 12 19 11 25 -13 56 -82 108 -195 181 -328 213 -55 14 -207 13
-269 -2 -129 -30 -210 -82 -354 -228 l-111 -114 -50 29 c-115 66 -293 124
-470 154 -77 12 -348 13 -424 1 -133 -22 -331 -88 -440 -147 -30 -16 -59 -29
-64 -29 -6 0 -58 49 -116 108 -175 179 -282 233 -466 237 -55 2 -118 -1 -140
-5z"/>
</g>
</svg>
